<svg width="14" height="14" viewBox="0 0 14 14" fill="none" xmlns="http://www.w3.org/2000/svg">
<path d="M6.27734 10.3333H7.61068V7.66658H10.2773V6.33325H7.61068V3.66658H6.27734V6.33325H3.61068V7.66658H6.27734V10.3333ZM6.94401 13.6666C6.02179 13.6666 5.15512 13.4915 4.34401 13.1413C3.5329 12.7915 2.82734 12.3166 2.22734 11.7166C1.62734 11.1166 1.15245 10.411 0.802677 9.59992C0.452455 8.78881 0.277344 7.92214 0.277344 6.99992C0.277344 6.0777 0.452455 5.21103 0.802677 4.39992C1.15245 3.58881 1.62734 2.88325 2.22734 2.28325C2.82734 1.68325 3.5329 1.20814 4.34401 0.857919C5.15512 0.508141 6.02179 0.333252 6.94401 0.333252C7.86623 0.333252 8.7329 0.508141 9.54401 0.857919C10.3551 1.20814 11.0607 1.68325 11.6607 2.28325C12.2607 2.88325 12.7356 3.58881 13.0853 4.39992C13.4356 5.21103 13.6107 6.0777 13.6107 6.99992C13.6107 7.92214 13.4356 8.78881 13.0853 9.59992C12.7356 10.411 12.2607 11.1166 11.6607 11.7166C11.0607 12.3166 10.3551 12.7915 9.54401 13.1413C8.7329 13.4915 7.86623 13.6666 6.94401 13.6666Z" fill="black"/>
</svg>
