<svg width="20" height="20" viewBox="0 0 20 20" fill="none" xmlns="http://www.w3.org/2000/svg">
<path d="M9.9987 7.5C10.6617 7.5 11.2976 7.76339 11.7665 8.23223C12.2353 8.70107 12.4987 9.33696 12.4987 10C12.4987 10.663 12.2353 11.2989 11.7665 11.7678C11.2976 12.2366 10.6617 12.5 9.9987 12.5C9.33566 12.5 8.69977 12.2366 8.23093 11.7678C7.76209 11.2989 7.4987 10.663 7.4987 10C7.4987 9.33696 7.76209 8.70107 8.23093 8.23223C8.69977 7.76339 9.33566 7.5 9.9987 7.5ZM9.9987 3.75C14.1654 3.75 17.7237 6.34167 19.1654 10C17.7237 13.6583 14.1654 16.25 9.9987 16.25C5.83203 16.25 2.2737 13.6583 0.832031 10C2.2737 6.34167 5.83203 3.75 9.9987 3.75ZM2.6487 10C3.32224 11.3753 4.36812 12.534 5.66743 13.3444C6.96674 14.1548 8.46736 14.5844 9.9987 14.5844C11.53 14.5844 13.0307 14.1548 14.33 13.3444C15.6293 12.534 16.6752 11.3753 17.3487 10C16.6752 8.62474 15.6293 7.46604 14.33 6.65562C13.0307 5.8452 11.53 5.41557 9.9987 5.41557C8.46736 5.41557 6.96674 5.8452 5.66743 6.65562C4.36812 7.46604 3.32224 8.62474 2.6487 10Z" fill="#A29D9D"/>
</svg>
