<svg width="16" height="12" viewBox="0 0 16 12" fill="none" xmlns="http://www.w3.org/2000/svg">
<path d="M1.6 12C1.16 12 0.783467 11.8533 0.4704 11.5597C0.1568 11.2657 0 10.9125 0 10.5V1.5C0 1.0875 0.1568 0.7345 0.4704 0.441C0.783467 0.147 1.16 0 1.6 0H14.4C14.84 0 15.2168 0.147 15.5304 0.441C15.8435 0.7345 16 1.0875 16 1.5V10.5C16 10.9125 15.8435 11.2657 15.5304 11.5597C15.2168 11.8533 14.84 12 14.4 12H1.6ZM8 6.61875C8.06667 6.61875 8.13653 6.60925 8.2096 6.59025C8.2832 6.57175 8.35333 6.54375 8.42 6.50625L14.08 3.1875C14.1867 3.125 14.2667 3.047 14.32 2.9535C14.3733 2.8595 14.4 2.75625 14.4 2.64375C14.4 2.39375 14.2867 2.20625 14.06 2.08125C13.8333 1.95625 13.6 1.9625 13.36 2.1L8 5.25L2.64 2.1C2.4 1.9625 2.16667 1.95925 1.94 2.09025C1.71333 2.22175 1.6 2.40625 1.6 2.64375C1.6 2.76875 1.62667 2.878 1.68 2.9715C1.73333 3.0655 1.81333 3.1375 1.92 3.1875L7.58 6.50625C7.64667 6.54375 7.7168 6.57175 7.7904 6.59025C7.86347 6.60925 7.93333 6.61875 8 6.61875Z" fill="black"/>
</svg>
