<svg width="12" height="15" viewBox="0 0 12 15" fill="none" xmlns="http://www.w3.org/2000/svg">
<path d="M1.5 15C1.0875 15 0.7345 14.8602 0.441 14.5807C0.147 14.3007 0 13.9643 0 13.5714V6.42857C0 6.03571 0.147 5.69929 0.441 5.41929C0.7345 5.13976 1.0875 5 1.5 5H2.25V3.57143C2.25 2.58333 2.61575 1.74095 3.34725 1.04429C4.07825 0.348095 4.9625 0 6 0C7.0375 0 7.922 0.348095 8.6535 1.04429C9.3845 1.74095 9.75 2.58333 9.75 3.57143V5H10.5C10.9125 5 11.2657 5.13976 11.5597 5.41929C11.8533 5.69929 12 6.03571 12 6.42857V13.5714C12 13.9643 11.8533 14.3007 11.5597 14.5807C11.2657 14.8602 10.9125 15 10.5 15H1.5ZM6 11.4286C6.4125 11.4286 6.76575 11.2888 7.05975 11.0093C7.35325 10.7293 7.5 10.3929 7.5 10C7.5 9.60714 7.35325 9.27071 7.05975 8.99071C6.76575 8.71119 6.4125 8.57143 6 8.57143C5.5875 8.57143 5.2345 8.71119 4.941 8.99071C4.647 9.27071 4.5 9.60714 4.5 10C4.5 10.3929 4.647 10.7293 4.941 11.0093C5.2345 11.2888 5.5875 11.4286 6 11.4286ZM3.75 5H8.25V3.57143C8.25 2.97619 8.03125 2.47024 7.59375 2.05357C7.15625 1.6369 6.625 1.42857 6 1.42857C5.375 1.42857 4.84375 1.6369 4.40625 2.05357C3.96875 2.47024 3.75 2.97619 3.75 3.57143V5Z" fill="black"/>
</svg>
