<svg width="18" height="19" viewBox="0 0 18 19" fill="none" xmlns="http://www.w3.org/2000/svg">
<path d="M3.0375 16C2.8125 16 2.625 15.925 2.475 15.775C2.325 15.625 2.25 15.4375 2.25 15.2125V12.175C2.25 12 2.30625 11.8467 2.41875 11.7153C2.53125 11.5842 2.675 11.5 2.85 11.4625L5.4375 10.9375C5.6125 10.9125 5.79075 10.928 5.97225 10.984C6.15325 11.0405 6.3 11.125 6.4125 11.2375L8.175 13C9.125 12.425 9.99375 11.7437 10.7812 10.9562C11.5688 10.1687 12.225 9.325 12.75 8.425L10.95 6.5875C10.8375 6.475 10.7655 6.34675 10.734 6.20275C10.703 6.05925 10.7 5.9 10.725 5.725L11.2125 3.1C11.2375 2.925 11.3187 2.78125 11.4562 2.66875C11.5938 2.55625 11.75 2.5 11.925 2.5H14.9625C15.1875 2.5 15.375 2.575 15.525 2.725C15.675 2.875 15.75 3.0625 15.75 3.2875C15.75 4.9 15.3905 6.47175 14.6715 8.00275C13.953 9.53425 13.003 10.8905 11.8215 12.0715C10.6405 13.253 9.2845 14.203 7.7535 14.9215C6.222 15.6405 4.65 16 3.0375 16Z" fill="black"/>
</svg>
