<svg width="24" height="25" viewBox="0 0 24 25" fill="none" xmlns="http://www.w3.org/2000/svg">
<path d="M12.7 15.55L15.3 12.95C15.4833 12.7667 15.575 12.5333 15.575 12.25C15.575 11.9667 15.4833 11.7333 15.3 11.55L12.675 8.925C12.4917 8.74167 12.2627 8.654 11.988 8.662C11.7127 8.67067 11.4833 8.76667 11.3 8.95C11.1167 9.13333 11.025 9.36667 11.025 9.65C11.025 9.93333 11.1167 10.1667 11.3 10.35L12.2 11.25H8.975C8.69167 11.25 8.45833 11.3457 8.275 11.537C8.09167 11.729 8 11.9667 8 12.25C8 12.5333 8.096 12.7707 8.288 12.962C8.47933 13.154 8.71667 13.25 9 13.25H12.2L11.275 14.175C11.0917 14.3583 11.004 14.5877 11.012 14.863C11.0207 15.1377 11.1167 15.3667 11.3 15.55C11.4833 15.7333 11.7167 15.825 12 15.825C12.2833 15.825 12.5167 15.7333 12.7 15.55ZM12 22.25C10.6167 22.25 9.31667 21.9873 8.1 21.462C6.88333 20.9373 5.825 20.225 4.925 19.325C4.025 18.425 3.31267 17.3667 2.788 16.15C2.26267 14.9333 2 13.6333 2 12.25C2 10.8667 2.26267 9.56667 2.788 8.35C3.31267 7.13333 4.025 6.075 4.925 5.175C5.825 4.275 6.88333 3.56233 8.1 3.037C9.31667 2.51233 10.6167 2.25 12 2.25C13.3833 2.25 14.6833 2.51233 15.9 3.037C17.1167 3.56233 18.175 4.275 19.075 5.175C19.975 6.075 20.6873 7.13333 21.212 8.35C21.7373 9.56667 22 10.8667 22 12.25C22 13.6333 21.7373 14.9333 21.212 16.15C20.6873 17.3667 19.975 18.425 19.075 19.325C18.175 20.225 17.1167 20.9373 15.9 21.462C14.6833 21.9873 13.3833 22.25 12 22.25Z" fill="black"/>
</svg>
