<svg width="15" height="15" viewBox="0 0 15 15" fill="none" xmlns="http://www.w3.org/2000/svg">
<path d="M7.48047 0C11.6055 0 14.9805 3.375 14.9805 7.5C14.9805 11.625 11.6055 15 7.48047 15C5.41797 15 3.50547 14.1938 2.15547 12.825L3.50547 11.475C4.51797 12.4875 5.92422 13.125 7.49922 13.125C10.6117 13.125 13.1242 10.6125 13.1242 7.5C13.1242 4.3875 10.6117 1.875 7.49922 1.875C5.94297 1.875 4.59297 2.55 3.58047 3.58125L5.62422 5.625H-0.000781059V0L2.23047 2.23125C3.58047 0.88125 5.43672 0 7.49922 0H7.48047Z" fill="black"/>
</svg>
