<svg width="14" height="14" viewBox="0 0 14 14" fill="none" xmlns="http://www.w3.org/2000/svg">
<path d="M9.04251 8.16677H8.58167L8.41834 8.00927C8.78289 7.58575 9.04933 7.08689 9.19858 6.54838C9.34783 6.00987 9.3762 5.44503 9.28167 4.89427C9.00751 3.27261 7.65417 1.97761 6.02084 1.77927C5.44662 1.70663 4.86338 1.76631 4.31577 1.95374C3.76816 2.14118 3.27068 2.4514 2.86141 2.86068C2.45213 3.26995 2.14191 3.76743 1.95448 4.31504C1.76704 4.86265 1.70736 5.44588 1.78001 6.02011C1.97834 7.65344 3.27334 9.00677 4.89501 9.28094C5.44576 9.37547 6.0106 9.3471 6.54911 9.19784C7.08762 9.0486 7.58649 8.78216 8.01001 8.41761L8.16751 8.58094V9.04177L10.6467 11.5209C10.8858 11.7601 11.2767 11.7601 11.5158 11.5209C11.755 11.2818 11.755 10.8909 11.5158 10.6518L9.04251 8.16677ZM5.54251 8.16677C4.09001 8.16677 2.91751 6.99427 2.91751 5.54177C2.91751 4.08927 4.09001 2.91677 5.54251 2.91677C6.99501 2.91677 8.16751 4.08927 8.16751 5.54177C8.16751 6.99427 6.99501 8.16677 5.54251 8.16677Z" fill="black"/>
</svg>
