<svg width="22" height="22" viewBox="0 0 22 22" fill="none" xmlns="http://www.w3.org/2000/svg">
<path d="M18.4721 1.75928H5.27661C4.80999 1.75928 4.36248 1.94464 4.03253 2.27459C3.70258 2.60454 3.51721 3.05205 3.51721 3.51868V6.15777H1.75781V7.91717H3.51721V9.67657H1.75781V11.436H3.51721V13.1954H1.75781V14.9548H3.51721V17.5939C3.51721 18.0605 3.70258 18.508 4.03253 18.8379C4.36248 19.1679 4.80999 19.3533 5.27661 19.3533H18.4721C18.7054 19.3533 18.9292 19.2606 19.0941 19.0956C19.2591 18.9306 19.3518 18.7069 19.3518 18.4736V2.63898C19.3518 2.40567 19.2591 2.18191 19.0941 2.01694C18.9292 1.85196 18.7054 1.75928 18.4721 1.75928ZM11.4345 4.3975C12.8842 4.3975 14.0736 5.58597 14.0736 7.03659C14.0711 7.73582 13.7922 8.4057 13.2979 8.90021C12.8035 9.39473 12.1337 9.67379 11.4345 9.67657C9.98564 9.67657 8.79541 8.48634 8.79541 7.03659C8.79541 5.58597 9.98564 4.3975 11.4345 4.3975ZM16.7127 15.8345H6.15631V15.1747C6.15631 13.2226 8.53589 11.216 11.4345 11.216C14.3331 11.216 16.7127 13.2226 16.7127 15.1747V15.8345Z" fill="black"/>
</svg>
